<svg xmlns="http://www.w3.org/2000/svg" aria-hidden="true" style="position:absolute;width:0;height:0;overflow:hidden">
  <defs>
    <symbol id="icon-usd" viewBox="0 0 32 32">
      <path fill="#fff" d="M14.616 1.202v.888l-.288.037c-2.621.361-4.851 1.513-6.094 3.154-1.623 2.125-1.684 5.556-.153 7.858 1.17 1.758 3.191 3.075 5.941 3.871l.594.172v3.7c0 2.487-.018 3.693-.061 3.693-.123 0-.827-.38-1.213-.655-.735-.521-1.47-1.66-1.801-2.793l-.135-.484-.251.037c-.135.018-1.305.135-2.603.251-1.299.123-2.364.233-2.377.239-.006.012.037.3.11.637.692 3.418 2.946 5.776 6.395 6.689.551.147 1.684.367 1.893.367.025 0 .043.631.043 1.409v1.408h2.879v-2.915l.502-.074c.784-.129 1.85-.423 2.621-.723 3.412-1.348 5.206-3.896 5.206-7.374 0-1.923-.612-3.442-1.893-4.716-1.274-1.262-3.167-2.18-5.672-2.744l-.735-.172-.018-3.467-.012-3.473.227.098c.355.147 1.029.606 1.25.858.355.41.655.925.796 1.396.123.392.165.46.282.46.129 0 4.104-.447 4.661-.521.312-.043.312-.061.104-.802-.331-1.158-1.06-2.358-1.893-3.13-1.286-1.201-2.799-1.856-5.194-2.254l-.233-.037V.319h-2.879v.882zm0 7.852v3.038l-.165-.043c-.386-.092-1.292-.582-1.593-.852-.649-.588-.968-1.599-.827-2.615.165-1.151.802-1.917 2.015-2.42.631-.257.57-.57.57 2.891zm3.528 9.065c1.415.472 2.284 1.219 2.609 2.248.141.441.165 1.305.055 1.788-.282 1.176-1.256 2.107-2.664 2.536-.729.227-.649.631-.649-3.301 0-2.885.012-3.43.086-3.43.043 0 .3.074.564.159z"/>
    </symbol>
    <symbol id="icon-uah" viewBox="0 0 32 32">
      <path fill="#fff" d="m20.569 14.585-3.492 2.823h10.254v3.122H14.034c-.889.668-1.415 1.486-1.415 2.524 0 1.785 1.415 2.752 3.939 2.752 2.155 0 4.011-1.038 5.497-3.193l4.089 2.752c-2.226 3.42-6.243 5.127-10.034 5.127-4.978 0-8.69-2.375-8.69-6.315 0-1.266.448-2.603 1.337-3.641H4.668v-3.122h6.535l3.57-2.823H4.668v-3.122h13.226c.967-.889 1.415-1.707 1.415-2.674 0-1.557-1.415-2.674-3.57-2.674-2.084 0-3.861 1.188-5.127 3.193L6.673 6.633c2.155-3.42 5.646-5.127 9.436-5.127 5.127 0 8.469 2.674 8.469 6.315 0 1.337-.448 2.674-1.188 3.641h3.939v3.122h-6.763z"/>
    </symbol>
    <symbol id="icon-ua" viewBox="0 0 32 32">
      <path fill="#ffda44" d="m0 16 16.125-2.463L32 16v16H0z" style="fill:var(--color1, #ffda44)"/>
      <path fill="#338af3" d="M0 0h32v16H0z" style="fill:var(--color2, #338af3)"/>
    </symbol>
    <symbol id="icon-gb" viewBox="0 0 32 32">
      <path fill="#eee" style="fill: var(--color1, #eee)" d="M0 0l0.5 1.375-0.5 1.438v1.438l2 3.375-2 3.375v2l2 3-2 3v2l2 3.375-2 3.375v4.25l1.375-0.5 1.438 0.5h1.438l3.375-2 3.375 2h2l3-2 3 2h2l3.375-2 3.375 2h4.25l-0.5-1.375 0.5-1.438v-1.438l-2-3.375 2-3.375v-2l-2-3 2-3v-2l-2-3.375 2-3.375v-4.25l-1.375 0.5-1.438-0.5h-1.438l-3.375 2-3.375-2h-2l-3 2-3-2h-2l-3.375 2-3.375-2h-4.25z"></path>
      <path fill="#0052b4" style="fill: var(--color2, #0052b4)" d="M21 0v6.75l6.75-6.75zM32 4.25l-6.75 6.75h6.75zM0 11h6.75l-6.75-6.75zM4.25 0l6.75 6.75v-6.75zM11 32v-6.75l-6.75 6.75zM0 27.75l6.75-6.75h-6.75zM32 21h-6.75l6.75 6.75zM27.75 32l-6.75-6.75v6.75z"></path>
      <path fill="#d80027" style="fill: var(--color3, #d80027)" d="M0 0v2.813l8.188 8.188h2.813l-11-11zM13 0v13h-13v6h13v13h6v-13h13v-6h-13v-13h-6zM29.188 0l-8.188 8.188v2.813l11-11h-2.813zM11 21l-11 11h2.813l8.188-8.188v-2.813zM21 21l11 11v-2.813l-8.188-8.188h-2.813z"></path>
    </symbol>
  </defs>
</svg>
